<svg width="581" height="1232" viewBox="0 0 581 1232" fill="none" xmlns="http://www.w3.org/2000/svg">
<path d="M290.37 1231.74C212.81 1231.74 139.89 1201.54 85.05 1146.69C30.2 1091.85 0 1018.93 0 941.37C0 863.81 30.2 790.89 85.05 736.05C139.89 681.2 212.81 651 290.37 651C367.93 651 440.85 681.2 495.69 736.05C550.53 790.89 580.74 863.81 580.74 941.37C580.74 1018.93 550.54 1091.85 495.69 1146.69C440.85 1201.53 367.93 1231.74 290.37 1231.74ZM290.37 670.49C218.02 670.49 149.99 698.67 98.83 749.83C47.67 800.99 19.49 869.02 19.49 941.37C19.49 1013.72 47.67 1081.75 98.83 1132.91C149.99 1184.07 218.02 1212.25 290.37 1212.25C362.72 1212.25 430.75 1184.07 481.91 1132.91C533.07 1081.75 561.25 1013.72 561.25 941.37C561.25 869.02 533.07 800.99 481.91 749.83C430.75 698.67 362.72 670.49 290.37 670.49Z" fill="#009FE3"/>
<path d="M290.37 1142.17C179.65 1142.17 89.57 1052.09 89.57 941.37C89.57 855.08 144.47 778.6 226.18 751.05C231.28 749.33 236.81 752.07 238.53 757.17C240.25 762.27 237.51 767.8 232.41 769.52C158.63 794.39 109.06 863.46 109.06 941.37C109.06 1041.34 190.39 1122.68 290.37 1122.68C390.35 1122.68 471.68 1041.35 471.68 941.37C471.68 902.25 459.42 865 436.23 833.65C413.49 802.91 382.33 780.48 346.13 768.79C341.01 767.14 338.2 761.64 339.85 756.52C341.5 751.4 346.99 748.58 352.12 750.24C392.21 763.18 426.72 788.02 451.9 822.05C477.59 856.78 491.17 898.03 491.17 941.36C491.17 1052.08 401.09 1142.16 290.37 1142.16V1142.17Z" fill="#009FE3"/>
<path d="M290 -25L290 941" stroke="#009FE3" stroke-width="19"/>
</svg>
