<svg width="91" height="91" viewBox="0 0 91 91" fill="none" xmlns="http://www.w3.org/2000/svg">
<path d="M89.6 1H1V89.6H89.6V1Z" stroke="#00D4FF" stroke-width="2" stroke-miterlimit="10"/>
<path d="M38.71 66.1L61.71 47.49L62.33 46.98C62.95 46.48 62.95 45.41 62.33 44.9L38.76 25.74C38.37 25.41 37.81 25.34 37.34 25.57C37.15 25.66 37.02 25.79 36.91 25.95C36.83 26.05 36.77 26.15 36.72 26.27C36.65 26.43 36.57 26.59 36.57 26.77L36.52 65.04C36.52 65.56 36.83 66.04 37.29 66.25C37.75 66.48 38.31 66.42 38.71 66.09V66.1Z" fill="#00D4FF"/>
</svg>
