<svg width="72" height="72" viewBox="0 0 72 72" fill="none" xmlns="http://www.w3.org/2000/svg">
<g clip-path="url(#clip0_473_258)">
<path d="M33.44 0.0799955C53.29 -1.26 70.29 13.84 71.59 33.45C72.9 53.16 57.93 70.27 38.23 71.58C18.56 72.89 1.49005 58.02 0.090047 38.35C-1.30995 18.69 13.56 1.42 33.44 0.0799955ZM45.11 41.53C51.75 44.31 56.58 49.41 59.06 55.91C69.91 43.35 68.73 24.68 56.95 13.53C45.08 2.29 26.47 2.33999 14.63 13.61C2.92005 24.77 1.79005 43.39 12.61 55.91C15.11 49.37 20.01 44.24 26.58 41.54C20.07 36.09 19.59 26.45 25.3 20.4C31.01 14.35 40.76 14.36 46.45 20.48C52.09 26.55 51.55 36.09 45.11 41.53ZM34.88 21.05C29.56 21.6 25.94 26.36 26.52 31.44C27.1 36.53 31.69 40.19 36.74 39.71C41.79 39.23 45.68 34.59 45.18 29.47C44.68 24.35 40.17 20.51 34.89 21.05H34.88ZM54.93 59.87C52.63 50.79 44.63 44.78 35.61 44.88C26.59 44.98 18.84 51.17 16.77 59.9C27.95 68.79 43.88 68.73 54.93 59.87Z" fill="#009FE3"/>
</g>
<defs>
<clipPath id="clip0_473_258">
<rect width="71.67" height="71.66" fill="white"/>
</clipPath>
</defs>
</svg>
