<svg width="581" height="581" viewBox="0 0 581 581" fill="none" xmlns="http://www.w3.org/2000/svg">
<path d="M290.37 580.74C212.81 580.74 139.89 550.54 85.05 495.69C30.2 440.85 0 367.93 0 290.37C0 212.81 30.2 139.89 85.05 85.05C139.89 30.2 212.81 0 290.37 0C367.93 0 440.85 30.2 495.69 85.05C550.53 139.89 580.74 212.81 580.74 290.37C580.74 367.93 550.54 440.85 495.69 495.69C440.85 550.53 367.93 580.74 290.37 580.74ZM290.37 19.49C218.02 19.49 149.99 47.67 98.83 98.83C47.67 149.99 19.49 218.02 19.49 290.37C19.49 362.72 47.67 430.75 98.83 481.91C149.99 533.07 218.02 561.25 290.37 561.25C362.72 561.25 430.75 533.07 481.91 481.91C533.07 430.75 561.25 362.72 561.25 290.37C561.25 218.02 533.07 149.99 481.91 98.83C430.75 47.67 362.72 19.49 290.37 19.49Z" fill="#009FE3"/>
</svg>
