<svg width="402" height="393" viewBox="0 0 402 393" fill="none" xmlns="http://www.w3.org/2000/svg">
<path d="M200.8 392.406C90.08 392.406 0 302.326 0 191.606C0 105.316 54.9 28.8362 136.61 1.28622C141.71 -0.433783 147.24 2.30621 148.96 7.40621C150.68 12.5062 147.94 18.0362 142.84 19.7562C69.06 44.6262 19.49 113.696 19.49 191.606C19.49 291.576 100.82 372.916 200.8 372.916C300.78 372.916 382.11 291.586 382.11 191.606C382.11 152.486 369.85 115.236 346.66 83.8862C323.92 53.1462 292.76 30.7162 256.56 19.0262C251.44 17.3762 248.63 11.8762 250.28 6.75621C251.93 1.63621 257.42 -1.18379 262.55 0.476212C302.64 13.4162 337.15 38.2562 362.33 72.2862C388.02 107.016 401.6 148.266 401.6 191.596C401.6 302.316 311.52 392.396 200.8 392.396V392.406Z" fill="#009FE3"/>
</svg>
