<svg width="814" height="212" viewBox="0 0 814 212" fill="none" xmlns="http://www.w3.org/2000/svg">
<mask id="mask0_473_22" style="mask-type:luminance" maskUnits="userSpaceOnUse" x="0" y="0" width="814" height="212">
<path d="M813.31 0H0V211.35H813.31V0Z" fill="white"/>
</mask>
<g mask="url(#mask0_473_22)">
<path d="M0 202.33L9.03 211.35H4.51L0 206.84V202.33Z" fill="#000101"/>
<path d="M0 197.81L13.54 211.35H9.03L0 202.33V197.81Z" fill="#000102"/>
<path d="M0 193.3L18.05 211.35H13.54L0 197.81V193.3Z" fill="#000203"/>
<path d="M0 188.78L22.57 211.35H18.05L0 193.3V188.78Z" fill="#000304"/>
<path d="M0 184.27L27.08 211.35H22.57L0 188.78V184.27Z" fill="#000405"/>
<path d="M0 179.76L31.59 211.35H27.08L0 184.27V179.76Z" fill="#000406"/>
<path d="M0 175.24L36.11 211.35H31.59L0 179.76V175.24Z" fill="#000507"/>
<path d="M0 170.73L40.62 211.35H36.11L0 175.24V170.73Z" fill="#000608"/>
<path d="M0 166.21L45.14 211.35H40.62L0 170.73V166.21Z" fill="#000609"/>
<path d="M0 161.7L49.65 211.35H45.14L0 166.21V161.7Z" fill="#00070A"/>
<path d="M0 157.19L54.16 211.35H49.65L0 161.7V157.19Z" fill="#00080B"/>
<path d="M0 152.67L58.68 211.35H54.16L0 157.19V152.67Z" fill="#00080C"/>
<path d="M0 148.16L63.19 211.35H58.68L0 152.67V148.16Z" fill="#00090D"/>
<path d="M0 143.64L67.71 211.35H63.19L0 148.16V143.64Z" fill="#000A0E"/>
<path d="M0 139.13L72.22 211.35H67.71L0 143.64V139.13Z" fill="#000B0F"/>
<path d="M0 134.62L76.73 211.35H72.22L0 139.13V134.62Z" fill="#000B10"/>
<path d="M0 130.1L81.25 211.35H76.73L0 134.62V130.1Z" fill="#000C11"/>
<path d="M0 125.59L85.76 211.35H81.25L0 130.1V125.59Z" fill="#000D12"/>
<path d="M0 121.07L90.28 211.35H85.76L0 125.59V121.07Z" fill="#000D13"/>
<path d="M0 116.56L94.79 211.35H90.28L0 121.07V116.56Z" fill="#000E14"/>
<path d="M0 112.05L99.3 211.35H94.79L0 116.56V112.05Z" fill="#000F15"/>
<path d="M0 107.53L103.82 211.35H99.3L0 112.05V107.53Z" fill="#000F16"/>
<path d="M0 103.02L108.33 211.35H103.82L0 107.53V103.02Z" fill="#001017"/>
<path d="M0 98.51L112.85 211.35H108.33L0 103.02V98.51Z" fill="#001118"/>
<path d="M0 93.99L117.36 211.35H112.85L0 98.51V93.99Z" fill="#001219"/>
<path d="M0 89.48L121.87 211.35H117.36L0 93.99V89.48Z" fill="#00121A"/>
<path d="M0 84.96L126.39 211.35H121.87L0 89.48V84.96Z" fill="#00131B"/>
<path d="M0 80.45L130.9 211.35H126.39L0 84.96V80.45Z" fill="#00141C"/>
<path d="M0 75.94L135.42 211.35H130.9L0 80.45V75.94Z" fill="#00141D"/>
<path d="M0 71.42L139.93 211.35H135.42L0 75.94V71.42Z" fill="#00151E"/>
<path d="M0 66.91L144.44 211.35H139.93L0 71.42V66.91Z" fill="#00161F"/>
<path d="M0 62.39L148.96 211.35H144.44L0 66.91V62.39Z" fill="#001720"/>
<path d="M0 57.88L153.47 211.35H148.96L0 62.39V57.88Z" fill="#001721"/>
<path d="M0 53.37L157.98 211.35H153.47L0 57.88V53.37Z" fill="#001822"/>
<path d="M0 48.85L162.5 211.35H157.98L0 53.37V48.85Z" fill="#001923"/>
<path d="M0 44.34L167.01 211.35H162.5L0 48.85V44.34Z" fill="#001924"/>
<path d="M0 39.82L171.53 211.35H167.01L0 44.34V39.82Z" fill="#001A25"/>
<path d="M0 35.31L176.04 211.35H171.53L0 39.82V35.31Z" fill="#001B26"/>
<path d="M0 30.8L180.55 211.35H176.04L0 35.31V30.8Z" fill="#001B27"/>
<path d="M0 26.28L185.07 211.35H180.55L0 30.8V26.28Z" fill="#001C28"/>
<path d="M0 21.77L189.58 211.35H185.07L0 26.28V21.77Z" fill="#001D29"/>
<path d="M0 17.25L194.1 211.35H189.58L0 21.77V17.25Z" fill="#001E2A"/>
<path d="M0 12.74L198.61 211.35H194.1L0 17.25V12.74Z" fill="#001E2B"/>
<path d="M0 8.22998L203.12 211.35H198.61L0 12.74V8.22998Z" fill="#001F2C"/>
<path d="M0 3.71002L207.64 211.35H203.12L0 8.23002V3.71002Z" fill="#00202D"/>
<path d="M0.8 0L212.15 211.35H207.64L0 3.71V0H0.8Z" fill="#00202E"/>
<path d="M5.31005 0L216.67 211.35H212.15L0.800049 0H5.31005Z" fill="#00212F"/>
<path d="M9.83006 0L221.18 211.35H216.67L5.31006 0H9.83006Z" fill="#002230"/>
<path d="M14.34 0L225.69 211.35H221.18L9.82996 0H14.34Z" fill="#002231"/>
<path d="M18.85 0L230.21 211.35H225.69L14.34 0H18.85Z" fill="#002332"/>
<path d="M23.37 0L234.72 211.35H230.21L18.85 0H23.37Z" fill="#002433"/>
<path d="M27.88 0L239.24 211.35H234.72L23.37 0H27.88Z" fill="#002534"/>
<path d="M32.4 0L243.75 211.35H239.24L27.88 0H32.4Z" fill="#002535"/>
<path d="M36.91 0L248.26 211.35H243.75L32.4 0H36.91Z" fill="#002636"/>
<path d="M41.42 0L252.78 211.35H248.26L36.91 0H41.42Z" fill="#002737"/>
<path d="M45.94 0L257.29 211.35H252.78L41.42 0H45.94Z" fill="#002738"/>
<path d="M50.4499 0L261.81 211.35H257.29L45.9399 0H50.4499Z" fill="#002839"/>
<path d="M54.9699 0L266.32 211.35H261.81L50.45 0H54.9699Z" fill="#00293A"/>
<path d="M59.48 0L270.83 211.35H266.32L54.97 0H59.48Z" fill="#002A3B"/>
<path d="M63.99 0L275.35 211.35H270.83L59.48 0H63.99Z" fill="#002A3C"/>
<path d="M68.51 0L279.86 211.35H275.35L63.99 0H68.51Z" fill="#002B3D"/>
<path d="M73.02 0L284.37 211.35H279.86L68.51 0H73.02Z" fill="#002C3E"/>
<path d="M77.54 0L288.89 211.35H284.37L73.02 0H77.54Z" fill="#002C3F"/>
<path d="M82.05 0L293.4 211.35H288.89L77.54 0H82.05Z" fill="#002D40"/>
<path d="M86.5601 0L297.92 211.35H293.4L82.05 0H86.5601Z" fill="#002E41"/>
<path d="M91.0801 0L302.43 211.35H297.92L86.5601 0H91.0801Z" fill="#002E42"/>
<path d="M95.59 0L306.94 211.35H302.43L91.08 0H95.59Z" fill="#002F43"/>
<path d="M100.1 0L311.46 211.35H306.94L95.59 0H100.1Z" fill="#003044"/>
<path d="M104.62 0L315.97 211.35H311.46L100.1 0H104.62Z" fill="#003145"/>
<path d="M109.13 0L320.49 211.35H315.97L104.62 0H109.13Z" fill="#003146"/>
<path d="M113.65 0L325 211.35H320.49L109.13 0H113.65Z" fill="#003247"/>
<path d="M118.16 0L329.51 211.35H325L113.65 0H118.16Z" fill="#003348"/>
<path d="M122.67 0L334.03 211.35H329.51L118.16 0H122.67Z" fill="#003349"/>
<path d="M127.19 0L338.54 211.35H334.03L122.67 0H127.19Z" fill="#00344A"/>
<path d="M131.7 0L343.06 211.35H338.54L127.19 0H131.7Z" fill="#00354B"/>
<path d="M136.22 0L347.57 211.35H343.06L131.7 0H136.22Z" fill="#00354C"/>
<path d="M140.73 0L352.08 211.35H347.57L136.22 0H140.73Z" fill="#00364D"/>
<path d="M145.24 0L356.6 211.35H352.08L140.73 0H145.24Z" fill="#00374E"/>
<path d="M149.76 0L361.11 211.35H356.6L145.24 0H149.76Z" fill="#00384F"/>
<path d="M154.27 0L365.63 211.35H361.11L149.76 0H154.27Z" fill="#003850"/>
<path d="M158.79 0L370.14 211.35H365.63L154.27 0H158.79Z" fill="#003951"/>
<path d="M163.3 0L374.65 211.35H370.14L158.79 0H163.3Z" fill="#003A52"/>
<path d="M167.81 0L379.17 211.35H374.65L163.3 0H167.81Z" fill="#003A53"/>
<path d="M172.33 0L383.68 211.35H379.17L167.81 0H172.33Z" fill="#003B54"/>
<path d="M176.84 0L388.19 211.35H383.68L172.33 0H176.84Z" fill="#003C55"/>
<path d="M181.36 0L392.71 211.35H388.19L176.84 0H181.36Z" fill="#003D56"/>
<path d="M185.87 0L397.22 211.35H392.71L181.36 0H185.87Z" fill="#003D57"/>
<path d="M190.38 0L401.74 211.35H397.22L185.87 0H190.38Z" fill="#003E58"/>
<path d="M194.9 0L406.25 211.35H401.74L190.38 0H194.9Z" fill="#003F59"/>
<path d="M199.41 0L410.76 211.35H406.25L194.9 0H199.41Z" fill="#003F5A"/>
<path d="M203.93 0L415.28 211.35H410.76L199.41 0H203.93Z" fill="#00405B"/>
<path d="M208.44 0L419.79 211.35H415.28L203.93 0H208.44Z" fill="#00415C"/>
<path d="M212.95 0L424.31 211.35H419.79L208.44 0H212.95Z" fill="#00415D"/>
<path d="M217.47 0L428.82 211.35H424.31L212.95 0H217.47Z" fill="#00425E"/>
<path d="M221.98 0L433.33 211.35H428.82L217.47 0H221.98Z" fill="#00435F"/>
<path d="M226.49 0L437.85 211.35H433.33L221.98 0H226.49Z" fill="#004460"/>
<path d="M231.01 0L442.36 211.35H437.85L226.49 0H231.01Z" fill="#004461"/>
<path d="M235.52 0L446.88 211.35H442.36L231.01 0H235.52Z" fill="#004562"/>
<path d="M240.04 0L451.39 211.35H446.88L235.52 0H240.04Z" fill="#004663"/>
<path d="M244.55 0L455.9 211.35H451.39L240.04 0H244.55Z" fill="#004664"/>
<path d="M249.06 0L460.42 211.35H455.9L244.55 0H249.06Z" fill="#004765"/>
<path d="M253.58 0L464.93 211.35H460.42L249.06 0H253.58Z" fill="#004866"/>
<path d="M258.09 0L469.45 211.35H464.93L253.58 0H258.09Z" fill="#004867"/>
<path d="M262.61 0L473.96 211.35H469.45L258.09 0H262.61Z" fill="#004968"/>
<path d="M267.12 0L478.47 211.35H473.96L262.61 0H267.12Z" fill="#004A69"/>
<path d="M271.63 0L482.99 211.35H478.47L267.12 0H271.63Z" fill="#004B6A"/>
<path d="M276.15 0L487.5 211.35H482.99L271.63 0H276.15Z" fill="#004B6B"/>
<path d="M280.66 0L492.02 211.35H487.5L276.15 0H280.66Z" fill="#004C6C"/>
<path d="M285.18 0L496.53 211.35H492.02L280.66 0H285.18Z" fill="#004D6D"/>
<path d="M289.69 0L501.04 211.35H496.53L285.18 0H289.69Z" fill="#004D6E"/>
<path d="M294.2 0L505.56 211.35H501.04L289.69 0H294.2Z" fill="#004E6F"/>
<path d="M298.72 0L510.07 211.35H505.56L294.2 0H298.72Z" fill="#004F70"/>
<path d="M303.23 0L514.58 211.35H510.07L298.72 0H303.23Z" fill="#005072"/>
<path d="M307.75 0L519.1 211.35H514.58L303.23 0H307.75Z" fill="#005073"/>
<path d="M312.26 0L523.61 211.35H519.1L307.75 0H312.26Z" fill="#005174"/>
<path d="M316.77 0L528.13 211.35H523.61L312.26 0H316.77Z" fill="#005275"/>
<path d="M321.29 0L532.64 211.35H528.13L316.77 0H321.29Z" fill="#005276"/>
<path d="M325.8 0L537.15 211.35H532.64L321.29 0H325.8Z" fill="#005377"/>
<path d="M330.32 0L541.67 211.35H537.15L325.8 0H330.32Z" fill="#005478"/>
<path d="M334.83 0L546.18 211.35H541.67L330.32 0H334.83Z" fill="#005479"/>
<path d="M339.34 0L550.7 211.35H546.18L334.83 0H339.34Z" fill="#00557A"/>
<path d="M343.86 0L555.21 211.35H550.7L339.34 0H343.86Z" fill="#00567B"/>
<path d="M348.37 0L559.72 211.35H555.21L343.86 0H348.37Z" fill="#00577C"/>
<path d="M352.88 0L564.24 211.35H559.72L348.37 0H352.88Z" fill="#00577D"/>
<path d="M357.4 0L568.75 211.35H564.24L352.88 0H357.4Z" fill="#00587E"/>
<path d="M361.91 0L573.27 211.35H568.75L357.4 0H361.91Z" fill="#00597F"/>
<path d="M366.43 0L577.78 211.35H573.27L361.91 0H366.43Z" fill="#005980"/>
<path d="M370.94 0L582.29 211.35H577.78L366.43 0H370.94Z" fill="#005A81"/>
<path d="M375.45 0L586.81 211.35H582.29L370.94 0H375.45Z" fill="#005B82"/>
<path d="M379.97 0L591.32 211.35H586.81L375.45 0H379.97Z" fill="#005B83"/>
<path d="M384.48 0L595.84 211.35H591.32L379.97 0H384.48Z" fill="#005C84"/>
<path d="M389 0L600.35 211.35H595.84L384.48 0H389Z" fill="#005D85"/>
<path d="M393.51 0L604.86 211.35H600.35L389 0H393.51Z" fill="#005E86"/>
<path d="M398.02 0L609.38 211.35H604.86L393.51 0H398.02Z" fill="#005E87"/>
<path d="M402.54 0L613.89 211.35H609.38L398.02 0H402.54Z" fill="#005F88"/>
<path d="M407.05 0L618.41 211.35H613.89L402.54 0H407.05Z" fill="#006089"/>
<path d="M411.57 0L622.92 211.35H618.41L407.05 0H411.57Z" fill="#00608A"/>
<path d="M416.08 0L627.43 211.35H622.92L411.57 0H416.08Z" fill="#00618B"/>
<path d="M420.59 0L631.95 211.35H627.43L416.08 0H420.59Z" fill="#00628C"/>
<path d="M425.11 0L636.46 211.35H631.95L420.59 0H425.11Z" fill="#00628D"/>
<path d="M429.62 0L640.97 211.35H636.46L425.11 0H429.62Z" fill="#00638E"/>
<path d="M434.14 0L645.49 211.35H640.97L429.62 0H434.14Z" fill="#00648F"/>
<path d="M438.65 0L650 211.35H645.49L434.14 0H438.65Z" fill="#006590"/>
<path d="M443.16 0L654.52 211.35H650L438.65 0H443.16Z" fill="#006591"/>
<path d="M447.68 0L659.03 211.35H654.52L443.16 0H447.68Z" fill="#006692"/>
<path d="M452.19 0L663.54 211.35H659.03L447.68 0H452.19Z" fill="#006793"/>
<path d="M456.71 0L668.06 211.35H663.54L452.19 0H456.71Z" fill="#006794"/>
<path d="M461.22 0L672.57 211.35H668.06L456.71 0H461.22Z" fill="#006895"/>
<path d="M465.73 0L677.09 211.35H672.57L461.22 0H465.73Z" fill="#006996"/>
<path d="M470.25 0L681.6 211.35H677.09L465.73 0H470.25Z" fill="#006A97"/>
<path d="M474.76 0L686.11 211.35H681.6L470.25 0H474.76Z" fill="#006A98"/>
<path d="M479.27 0L690.63 211.35H686.11L474.76 0H479.27Z" fill="#006B99"/>
<path d="M483.79 0L695.14 211.35H690.63L479.27 0H483.79Z" fill="#006C9A"/>
<path d="M488.3 0L699.66 211.35H695.14L483.79 0H488.3Z" fill="#006C9B"/>
<path d="M492.82 0L704.17 211.35H699.66L488.3 0H492.82Z" fill="#006D9C"/>
<path d="M497.33 0L708.68 211.35H704.17L492.82 0H497.33Z" fill="#006E9D"/>
<path d="M501.84 0L713.2 211.35H708.68L497.33 0H501.84Z" fill="#006E9E"/>
<path d="M506.36 0L717.71 211.35H713.2L501.84 0H506.36Z" fill="#006F9F"/>
<path d="M510.87 0L722.23 211.35H717.71L506.36 0H510.87Z" fill="#0070A0"/>
<path d="M515.39 0L726.74 211.35H722.23L510.87 0H515.39Z" fill="#0071A1"/>
<path d="M519.9 0L731.25 211.35H726.74L515.39 0H519.9Z" fill="#0071A2"/>
<path d="M524.41 0L735.77 211.35H731.25L519.9 0H524.41Z" fill="#0072A3"/>
<path d="M528.93 0L740.28 211.35H735.77L524.41 0H528.93Z" fill="#0073A4"/>
<path d="M533.44 0L744.8 211.35H740.28L528.93 0H533.44Z" fill="#0073A5"/>
<path d="M537.96 0L749.31 211.35H744.8L533.44 0H537.96Z" fill="#0074A6"/>
<path d="M542.47 0L753.82 211.35H749.31L537.96 0H542.47Z" fill="#0075A7"/>
<path d="M546.98 0L758.34 211.35H753.82L542.47 0H546.98Z" fill="#0075A8"/>
<path d="M551.5 0L762.85 211.35H758.34L546.98 0H551.5Z" fill="#0076A9"/>
<path d="M556.01 0L767.36 211.35H762.85L551.5 0H556.01Z" fill="#0077AA"/>
<path d="M560.53 0L771.88 211.35H767.36L556.01 0H560.53Z" fill="#0078AB"/>
<path d="M565.04 0L776.39 211.35H771.88L560.53 0H565.04Z" fill="#0078AC"/>
<path d="M569.55 0L780.91 211.35H776.39L565.04 0H569.55Z" fill="#0079AD"/>
<path d="M574.07 0L785.42 211.35H780.91L569.55 0H574.07Z" fill="#007AAE"/>
<path d="M578.58 0L789.93 211.35H785.42L574.07 0H578.58Z" fill="#007AAF"/>
<path d="M583.1 0L794.45 211.35H789.93L578.58 0H583.1Z" fill="#007BB0"/>
<path d="M587.61 0L798.96 211.35H794.45L583.1 0H587.61Z" fill="#007CB1"/>
<path d="M592.12 0L803.48 211.35H798.96L587.61 0H592.12Z" fill="#007DB2"/>
<path d="M596.64 0L807.99 211.35H803.48L592.12 0H596.64Z" fill="#007DB3"/>
<path d="M601.15 0L812.5 211.35H807.99L596.64 0H601.15Z" fill="#007EB4"/>
<path d="M605.66 0L813.31 207.64V211.35H812.5L601.15 0H605.66Z" fill="#007FB5"/>
<path d="M610.18 0L813.31 203.13V207.64L605.66 0H610.18Z" fill="#007FB6"/>
<path d="M614.69 0L813.31 198.61V203.13L610.18 0H614.69Z" fill="#0080B7"/>
<path d="M619.21 0L813.31 194.1V198.61L614.69 0H619.21Z" fill="#0081B8"/>
<path d="M623.72 0L813.31 189.58V194.1L619.21 0H623.72Z" fill="#0081B9"/>
<path d="M628.23 0L813.31 185.07V189.58L623.72 0H628.23Z" fill="#0082BA"/>
<path d="M632.75 0L813.31 180.56V185.07L628.23 0H632.75Z" fill="#0083BB"/>
<path d="M637.26 0L813.31 176.04V180.56L632.75 0H637.26Z" fill="#0084BC"/>
<path d="M641.78 0L813.31 171.53V176.04L637.26 0H641.78Z" fill="#0084BD"/>
<path d="M646.29 0L813.31 167.02V171.53L641.78 0H646.29Z" fill="#0085BE"/>
<path d="M650.8 0L813.31 162.5V167.02L646.29 0H650.8Z" fill="#0086BF"/>
<path d="M655.32 0L813.31 157.99V162.5L650.8 0H655.32Z" fill="#0086C0"/>
<path d="M659.83 0L813.31 153.47V157.99L655.32 0H659.83Z" fill="#0087C1"/>
<path d="M664.35 0L813.31 148.96V153.47L659.83 0H664.35Z" fill="#0088C2"/>
<path d="M668.86 0L813.31 144.45V148.96L664.35 0H668.86Z" fill="#0088C3"/>
<path d="M673.37 0L813.31 139.93V144.45L668.86 0H673.37Z" fill="#0089C4"/>
<path d="M677.89 0L813.31 135.42V139.93L673.37 0H677.89Z" fill="#008AC5"/>
<path d="M682.4 0L813.31 130.9V135.42L677.89 0H682.4Z" fill="#008BC6"/>
<path d="M686.92 0L813.31 126.39V130.9L682.4 0H686.92Z" fill="#008BC7"/>
<path d="M691.43 0L813.31 121.88V126.39L686.92 0H691.43Z" fill="#008CC8"/>
<path d="M695.94 0L813.31 117.36V121.88L691.43 0H695.94Z" fill="#008DC9"/>
<path d="M700.46 0L813.31 112.85V117.36L695.94 0H700.46Z" fill="#008DCA"/>
<path d="M704.97 0L813.31 108.33V112.85L700.46 0H704.97Z" fill="#008ECB"/>
<path d="M709.48 0L813.31 103.82V108.33L704.97 0H709.48Z" fill="#008FCC"/>
<path d="M714 0L813.31 99.31V103.82L709.48 0H714Z" fill="#0090CD"/>
<path d="M718.51 0L813.31 94.79V99.31L714 0H718.51Z" fill="#0090CE"/>
<path d="M723.03 0L813.31 90.28V94.79L718.51 0H723.03Z" fill="#0091CF"/>
<path d="M727.54 0L813.31 85.76V90.28L723.03 0H727.54Z" fill="#0092D0"/>
<path d="M732.05 0L813.31 81.25V85.76L727.54 0H732.05Z" fill="#0092D1"/>
<path d="M736.57 0L813.31 76.74V81.25L732.05 0H736.57Z" fill="#0093D2"/>
<path d="M741.08 0L813.31 72.22V76.74L736.57 0H741.08Z" fill="#0094D3"/>
<path d="M745.6 0L813.31 67.71V72.22L741.08 0H745.6Z" fill="#0094D4"/>
<path d="M750.11 0L813.31 63.19V67.71L745.6 0H750.11Z" fill="#0095D5"/>
<path d="M754.62 0L813.31 58.68V63.19L750.11 0H754.62Z" fill="#0096D6"/>
<path d="M759.14 0L813.31 54.17V58.68L754.62 0H759.14Z" fill="#0097D7"/>
<path d="M763.65 0L813.31 49.65V54.17L759.14 0H763.65Z" fill="#0097D8"/>
<path d="M768.17 0L813.31 45.14V49.65L763.65 0H768.17Z" fill="#0098D9"/>
<path d="M772.68 0L813.31 40.63V45.14L768.17 0H772.68Z" fill="#0099DA"/>
<path d="M777.19 0L813.31 36.11V40.63L772.68 0H777.19Z" fill="#0099DB"/>
<path d="M781.71 0L813.31 31.6V36.11L777.19 0H781.71Z" fill="#009ADC"/>
<path d="M786.22 0L813.31 27.08V31.6L781.71 0H786.22Z" fill="#009BDD"/>
<path d="M790.74 0L813.31 22.57V27.08L786.22 0H790.74Z" fill="#009BDE"/>
<path d="M795.25 0L813.31 18.06V22.57L790.74 0H795.25Z" fill="#009CDF"/>
<path d="M799.76 0L813.31 13.54V18.06L795.25 0H799.76Z" fill="#009DE0"/>
<path d="M804.28 0L813.31 9.03V13.54L799.76 0H804.28Z" fill="#009EE1"/>
<path d="M808.79 0L813.31 4.51V9.03L804.28 0H808.79Z" fill="#00CBFF"/>
<path d="M813.31 0V4.51L808.79 0H813.31Z" fill="#00D4FF"/>
</g>
</svg>
